<mxfile host="app.diagrams.net" modified="2023-04-24T15:28:47.723Z" agent="Mozilla/5.0 (X11; Ubuntu; Linux x86_64; rv:109.0) Gecko/20100101 Firefox/112.0" version="21.2.1" etag="uWc33CMnjIcPArYl6Evh" type="github">
  <diagram name="Страница 1" id="UNwYSVkIGrnx9U7rAVIa">
    <mxGraphModel>
      <root>
        <mxCell id="0" />
        <mxCell id="1" parent="0" />
      </root>
    </mxGraphModel>
  </diagram>
</mxfile>
